<mxfile host="app.diagrams.net" modified="2022-01-09T23:13:04.550Z" agent="5.0 (Windows NT 10.0; Win64; x64) AppleWebKit/537.36 (KHTML, like Gecko) Chrome/97.0.4692.71 Safari/537.36" etag="QpEO9EEi5cMB0mv5aa5x" version="15.7.1" type="github">
  <diagram id="1WQrzugM3mSanYjvC9MU" name="Page-1">
    <mxGraphModel dx="1422" dy="762" grid="1" gridSize="10" guides="1" tooltips="1" connect="1" arrows="1" fold="1" page="1" pageScale="1" pageWidth="850" pageHeight="1100" math="0" shadow="0">
      <root>
        <mxCell id="0" />
        <mxCell id="1" parent="0" />
        <mxCell id="lZhq6N-RLEPcpf46Ezwa-4" style="rounded=0;orthogonalLoop=1;jettySize=auto;html=1;entryX=0;entryY=0.5;entryDx=0;entryDy=0;" edge="1" parent="1" source="lZhq6N-RLEPcpf46Ezwa-1" target="lZhq6N-RLEPcpf46Ezwa-2">
          <mxGeometry relative="1" as="geometry" />
        </mxCell>
        <mxCell id="lZhq6N-RLEPcpf46Ezwa-5" style="rounded=0;orthogonalLoop=1;jettySize=auto;html=1;entryX=0;entryY=0.5;entryDx=0;entryDy=0;" edge="1" parent="1" source="lZhq6N-RLEPcpf46Ezwa-1" target="lZhq6N-RLEPcpf46Ezwa-3">
          <mxGeometry relative="1" as="geometry" />
        </mxCell>
        <mxCell id="lZhq6N-RLEPcpf46Ezwa-1" value="S3" style="sketch=0;points=[[0,0,0],[0.25,0,0],[0.5,0,0],[0.75,0,0],[1,0,0],[0,1,0],[0.25,1,0],[0.5,1,0],[0.75,1,0],[1,1,0],[0,0.25,0],[0,0.5,0],[0,0.75,0],[1,0.25,0],[1,0.5,0],[1,0.75,0]];outlineConnect=0;fontColor=#232F3E;gradientColor=#60A337;gradientDirection=north;fillColor=#277116;strokeColor=#ffffff;dashed=0;verticalLabelPosition=bottom;verticalAlign=top;align=center;html=1;fontSize=12;fontStyle=0;aspect=fixed;shape=mxgraph.aws4.resourceIcon;resIcon=mxgraph.aws4.s3;" vertex="1" parent="1">
          <mxGeometry x="110" y="210" width="78" height="78" as="geometry" />
        </mxCell>
        <mxCell id="lZhq6N-RLEPcpf46Ezwa-9" style="edgeStyle=none;rounded=0;orthogonalLoop=1;jettySize=auto;html=1;" edge="1" parent="1" source="lZhq6N-RLEPcpf46Ezwa-2" target="lZhq6N-RLEPcpf46Ezwa-6">
          <mxGeometry relative="1" as="geometry" />
        </mxCell>
        <mxCell id="lZhq6N-RLEPcpf46Ezwa-10" style="edgeStyle=none;rounded=0;orthogonalLoop=1;jettySize=auto;html=1;entryX=0;entryY=0.5;entryDx=0;entryDy=0;exitX=1;exitY=0.5;exitDx=0;exitDy=0;" edge="1" parent="1" source="lZhq6N-RLEPcpf46Ezwa-2" target="lZhq6N-RLEPcpf46Ezwa-7">
          <mxGeometry relative="1" as="geometry" />
        </mxCell>
        <mxCell id="lZhq6N-RLEPcpf46Ezwa-11" style="edgeStyle=none;rounded=0;orthogonalLoop=1;jettySize=auto;html=1;exitX=1;exitY=0.5;exitDx=0;exitDy=0;entryX=0;entryY=0.5;entryDx=0;entryDy=0;" edge="1" parent="1" source="lZhq6N-RLEPcpf46Ezwa-2" target="lZhq6N-RLEPcpf46Ezwa-8">
          <mxGeometry relative="1" as="geometry" />
        </mxCell>
        <mxCell id="lZhq6N-RLEPcpf46Ezwa-2" value="Server-side encryption" style="rounded=0;whiteSpace=wrap;html=1;fillColor=#cdeb8b;strokeColor=#36393d;" vertex="1" parent="1">
          <mxGeometry x="300" y="170" width="120" height="60" as="geometry" />
        </mxCell>
        <mxCell id="lZhq6N-RLEPcpf46Ezwa-3" value="Client-side &lt;br&gt;encryption" style="rounded=0;whiteSpace=wrap;html=1;fillColor=#ffcccc;strokeColor=#36393d;" vertex="1" parent="1">
          <mxGeometry x="300" y="250" width="120" height="60" as="geometry" />
        </mxCell>
        <mxCell id="lZhq6N-RLEPcpf46Ezwa-6" value="Server-Side Encryption with Amazon S3-Managed Keys (SSE-S3)" style="rounded=0;whiteSpace=wrap;html=1;fillColor=#cdeb8b;strokeColor=#36393d;" vertex="1" parent="1">
          <mxGeometry x="490" y="170" width="260" height="60" as="geometry" />
        </mxCell>
        <mxCell id="lZhq6N-RLEPcpf46Ezwa-7" value="Server-Side Encryption with KMS keys Stored in AWS Key Management Service (SSE-KMS)" style="rounded=0;whiteSpace=wrap;html=1;fillColor=#cdeb8b;strokeColor=#36393d;" vertex="1" parent="1">
          <mxGeometry x="490" y="100" width="260" height="60" as="geometry" />
        </mxCell>
        <mxCell id="lZhq6N-RLEPcpf46Ezwa-8" value="Server-Side Encryption with Customer-Provided Keys (SSE-C)" style="rounded=0;whiteSpace=wrap;html=1;fillColor=#cdeb8b;strokeColor=#36393d;" vertex="1" parent="1">
          <mxGeometry x="490" y="30" width="260" height="60" as="geometry" />
        </mxCell>
      </root>
    </mxGraphModel>
  </diagram>
</mxfile>
